# MagicaVoxel @ Ephtracy

# group
o 

# material
mtllib Jugador 2 B.mtl
usemtl palette

# normals
vn -1 0 0
vn 1 0 0
vn 0 0 1
vn 0 0 -1
vn 0 -1 0
vn 0 1 0

# texcoords
vt 0.837891 0.5
vt 0.919922 0.5
vt 0.931641 0.5

# verts
v -0.2 0 -1.49012e-08
v -0.2 0 -0.3
v -0.2 0.1 -1.49012e-08
v -0.2 0.1 -0.3
v -0.1 0 0.1
v -0.1 0 -1.49012e-08
v -0.1 0 -0.3
v -0.1 0 -0.4
v -0.1 0.1 0.1
v -0.1 0.1 -1.49012e-08
v -0.1 0.1 -0.3
v -0.1 0.1 -0.4
v -0.1 0.2 -1.49012e-08
v -0.1 0.2 -0.3
v 0 0.2 -0.1
v 0 0.2 -0.2
v 0 0.3 -0.1
v 0 0.3 -0.2
v 0.1 0.2 -0.1
v 0.1 0.2 -0.2
v 0.1 0.3 -0.1
v 0.1 0.3 -0.2
v 0.2 0 0.1
v 0.2 0 -1.49012e-08
v 0.2 0 -0.3
v 0.2 0 -0.4
v 0.2 0.1 0.1
v 0.2 0.1 -1.49012e-08
v 0.2 0.1 -0.3
v 0.2 0.1 -0.4
v 0.2 0.2 -1.49012e-08
v 0.2 0.2 -0.3
v 0.3 0 -1.49012e-08
v 0.3 0 -0.3
v 0.3 0.1 -1.49012e-08
v 0.3 0.1 -0.3
v -0.1 0 0.1
v -0.1 0.1 0.1
v 0.2 0 0.1
v 0.2 0.1 0.1
v -0.2 0 -1.49012e-08
v -0.2 0.1 -1.49012e-08
v -0.1 0 -1.49012e-08
v -0.1 0.1 -1.49012e-08
v -0.1 0.2 -1.49012e-08
v 0.2 0 -1.49012e-08
v 0.2 0.1 -1.49012e-08
v 0.2 0.2 -1.49012e-08
v 0.3 0 -1.49012e-08
v 0.3 0.1 -1.49012e-08
v 0 0.2 -0.1
v 0 0.3 -0.1
v 0.1 0.2 -0.1
v 0.1 0.3 -0.1
v 0 0.2 -0.2
v 0 0.3 -0.2
v 0.1 0.2 -0.2
v 0.1 0.3 -0.2
v -0.2 0 -0.3
v -0.2 0.1 -0.3
v -0.1 0 -0.3
v -0.1 0.1 -0.3
v -0.1 0.2 -0.3
v 0.2 0 -0.3
v 0.2 0.1 -0.3
v 0.2 0.2 -0.3
v 0.3 0 -0.3
v 0.3 0.1 -0.3
v -0.1 0 -0.4
v -0.1 0.1 -0.4
v 0.2 0 -0.4
v 0.2 0.1 -0.4
v -0.1 0 0.1
v 0.2 0 0.1
v -0.2 0 -1.49012e-08
v -0.1 0 -1.49012e-08
v 0.2 0 -1.49012e-08
v 0.3 0 -1.49012e-08
v -0.2 0 -0.3
v -0.1 0 -0.3
v 0.2 0 -0.3
v 0.3 0 -0.3
v -0.1 0 -0.4
v 0.2 0 -0.4
v -0.1 0.1 0.1
v 0.2 0.1 0.1
v -0.2 0.1 -1.49012e-08
v -0.1 0.1 -1.49012e-08
v 0.2 0.1 -1.49012e-08
v 0.3 0.1 -1.49012e-08
v -0.2 0.1 -0.3
v -0.1 0.1 -0.3
v 0.2 0.1 -0.3
v 0.3 0.1 -0.3
v -0.1 0.1 -0.4
v 0.2 0.1 -0.4
v -0.1 0.2 -1.49012e-08
v 0.2 0.2 -1.49012e-08
v 0 0.2 -0.1
v 0.1 0.2 -0.1
v 0 0.2 -0.2
v 0.1 0.2 -0.2
v -0.1 0.2 -0.3
v 0.2 0.2 -0.3
v 0 0.3 -0.1
v 0.1 0.3 -0.1
v 0 0.3 -0.2
v 0.1 0.3 -0.2

# faces
f 3/2/1 2/2/1 1/2/1
f 4/2/1 2/2/1 3/2/1
f 9/2/1 6/2/1 5/2/1
f 10/2/1 6/2/1 9/2/1
f 11/2/1 8/2/1 7/2/1
f 12/2/1 8/2/1 11/2/1
f 13/3/1 11/3/1 10/3/1
f 14/3/1 11/3/1 13/3/1
f 17/1/1 16/1/1 15/1/1
f 18/1/1 16/1/1 17/1/1
f 19/1/2 20/1/2 21/1/2
f 21/1/2 20/1/2 22/1/2
f 23/2/2 24/2/2 27/2/2
f 27/2/2 24/2/2 28/2/2
f 25/2/2 26/2/2 29/2/2
f 29/2/2 26/2/2 30/2/2
f 28/3/2 29/3/2 31/3/2
f 31/3/2 29/3/2 32/3/2
f 33/2/2 34/2/2 35/2/2
f 35/2/2 34/2/2 36/2/2
f 39/2/3 38/2/3 37/2/3
f 40/2/3 38/2/3 39/2/3
f 43/2/3 42/2/3 41/2/3
f 44/2/3 42/2/3 43/2/3
f 47/3/3 45/3/3 44/3/3
f 48/3/3 45/3/3 47/3/3
f 49/2/3 47/2/3 46/2/3
f 50/2/3 47/2/3 49/2/3
f 53/1/3 52/1/3 51/1/3
f 54/1/3 52/1/3 53/1/3
f 55/1/4 56/1/4 57/1/4
f 57/1/4 56/1/4 58/1/4
f 59/2/4 60/2/4 61/2/4
f 61/2/4 60/2/4 62/2/4
f 62/3/4 63/3/4 65/3/4
f 65/3/4 63/3/4 66/3/4
f 64/2/4 65/2/4 67/2/4
f 67/2/4 65/2/4 68/2/4
f 69/2/4 70/2/4 71/2/4
f 71/2/4 70/2/4 72/2/4
f 76/2/5 74/2/5 73/2/5
f 77/2/5 74/2/5 76/2/5
f 79/2/5 76/2/5 75/2/5
f 79/2/5 78/2/5 77/2/5
f 79/2/5 77/2/5 76/2/5
f 80/2/5 78/2/5 79/2/5
f 81/2/5 78/2/5 80/2/5
f 82/2/5 78/2/5 81/2/5
f 83/2/5 81/2/5 80/2/5
f 84/2/5 81/2/5 83/2/5
f 85/2/6 86/2/6 88/2/6
f 88/2/6 86/2/6 89/2/6
f 87/2/6 88/2/6 91/2/6
f 91/2/6 88/2/6 92/2/6
f 89/2/6 90/2/6 93/2/6
f 93/2/6 90/2/6 94/2/6
f 92/2/6 93/2/6 95/2/6
f 95/2/6 93/2/6 96/2/6
f 97/3/6 98/3/6 99/3/6
f 99/3/6 98/3/6 100/3/6
f 97/3/6 99/3/6 101/3/6
f 100/3/6 98/3/6 102/3/6
f 97/3/6 101/3/6 103/3/6
f 101/3/6 102/3/6 103/3/6
f 102/3/6 98/3/6 104/3/6
f 103/3/6 102/3/6 104/3/6
f 105/1/6 106/1/6 107/1/6
f 107/1/6 106/1/6 108/1/6
